<svg width="117" height="87" viewBox="0 0 117 87" fill="none" xmlns="http://www.w3.org/2000/svg">
<g clip-path="url(#clip0_4_7)">
<path d="M85.2188 25.3125H83.4375V18.5625C83.4375 17.6674 83.0622 16.809 82.3941 16.176C81.726 15.5431 80.8198 15.1875 79.875 15.1875H76.3125V13.5C76.3125 12.6049 75.9372 11.7464 75.2691 11.1135C74.601 10.4806 73.6948 10.125 72.75 10.125H67.4062C66.4614 10.125 65.5553 10.4806 64.8872 11.1135C64.2191 11.7464 63.8438 12.6049 63.8438 13.5V25.3125H53.1562V13.5C53.1562 12.6049 52.7809 11.7464 52.1128 11.1135C51.4447 10.4806 50.5386 10.125 49.5938 10.125H44.25C43.3052 10.125 42.399 10.4806 41.7309 11.1135C41.0628 11.7464 40.6875 12.6049 40.6875 13.5V15.1875H37.125C36.1802 15.1875 35.274 15.5431 34.6059 16.176C33.9378 16.809 33.5625 17.6674 33.5625 18.5625V25.3125H31.7812C31.3088 25.3125 30.8558 25.4903 30.5217 25.8068C30.1877 26.1232 30 26.5524 30 27C30 27.4476 30.1877 27.8768 30.5217 28.1932C30.8558 28.5097 31.3088 28.6875 31.7812 28.6875H33.5625V35.4375C33.5625 36.3326 33.9378 37.191 34.6059 37.824C35.274 38.4569 36.1802 38.8125 37.125 38.8125H40.6875V40.5C40.6875 41.3951 41.0628 42.2535 41.7309 42.8865C42.399 43.5194 43.3052 43.875 44.25 43.875H49.5938C50.5386 43.875 51.4447 43.5194 52.1128 42.8865C52.7809 42.2535 53.1562 41.3951 53.1562 40.5V28.6875H63.8438V40.5C63.8438 41.3951 64.2191 42.2535 64.8872 42.8865C65.5553 43.5194 66.4614 43.875 67.4062 43.875H72.75C73.6948 43.875 74.601 43.5194 75.2691 42.8865C75.9372 42.2535 76.3125 41.3951 76.3125 40.5V38.8125H79.875C80.8198 38.8125 81.726 38.4569 82.3941 37.824C83.0622 37.191 83.4375 36.3326 83.4375 35.4375V28.6875H85.2188C85.6912 28.6875 86.1442 28.5097 86.4783 28.1932C86.8123 27.8768 87 27.4476 87 27C87 26.5524 86.8123 26.1232 86.4783 25.8068C86.1442 25.4903 85.6912 25.3125 85.2188 25.3125ZM37.125 35.4375V18.5625H40.6875V35.4375H37.125ZM49.5938 40.5H44.25V13.5H49.5938V40.5ZM72.75 40.5H67.4062V13.5H72.75V37.087C72.75 37.0997 72.75 37.1123 72.75 37.125C72.75 37.1377 72.75 37.1503 72.75 37.163V40.5ZM79.875 35.4375H76.3125V18.5625H79.875V35.4375Z" fill="#550000"/>
</g>
<path d="M0.837891 59.9922H1.68164V53.2363H0.837891V52.1172H3.65039L6.46875 59.7871L9.32227 52.1172H11.9883V53.2363H11.1504V59.9922H11.9883V61H9.10547V59.9922H10.0547V53.1719L6.94922 61H5.95312L2.80664 53.1543V59.9922H3.7207V61H0.837891V59.9922ZM13.0137 54.9297H15.3164V55.9375H14.5957L16.0195 59.8105L17.5078 55.9375H16.793V54.9297H19.0957V55.9375H18.4688L15.7676 62.752H16.5996V63.7598H14.1504V62.752H14.8887L15.5332 61.082L13.5059 55.9375H13.0137V54.9297ZM20.5605 52.1172H24.1523C24.5508 52.1172 24.916 52.1699 25.248 52.2754C25.584 52.377 25.873 52.5293 26.1152 52.7324C26.3613 52.9316 26.5508 53.1816 26.6836 53.4824C26.8203 53.7832 26.8887 54.1289 26.8887 54.5195C26.8887 54.8438 26.8223 55.1504 26.6895 55.4395C26.5566 55.7246 26.3691 55.9746 26.127 56.1895C25.8848 56.4043 25.5938 56.5742 25.2539 56.6992C24.918 56.8242 24.543 56.8867 24.1289 56.8867H22.5527V59.9922H23.4434V61H20.5605V59.9922H21.4043V53.1309H20.5605V52.1172ZM22.5527 53.1309V55.9258H24.1523C24.375 55.9258 24.5781 55.8965 24.7617 55.8379C24.9492 55.7754 25.1094 55.6855 25.2422 55.5684C25.3789 55.4512 25.4844 55.3047 25.5586 55.1289C25.6367 54.9531 25.6758 54.75 25.6758 54.5195C25.6758 54.082 25.543 53.7422 25.2773 53.5C25.0117 53.2539 24.5879 53.1309 24.0059 53.1309H22.5527ZM28.793 58.1055C28.793 58.2773 28.8047 58.4355 28.8281 58.5801C28.8555 58.7207 28.8926 58.8555 28.9395 58.9844C29.084 59.375 29.3145 59.6699 29.6309 59.8691C29.9512 60.0645 30.3125 60.1621 30.7148 60.1621C31.0312 60.1621 31.3379 60.1191 31.6348 60.0332C31.9355 59.9434 32.25 59.8047 32.5781 59.6172L33.0176 60.3613C32.6191 60.6348 32.2188 60.8379 31.8164 60.9707C31.4141 61.1035 30.9961 61.1699 30.5625 61.1699C30.1523 61.1699 29.7715 61.1016 29.4199 60.9648C29.0723 60.8281 28.7715 60.625 28.5176 60.3555C28.2676 60.0859 28.0703 59.75 27.9258 59.3477C27.7852 58.9453 27.7148 58.4766 27.7148 57.9414C27.7148 57.5078 27.7754 57.0996 27.8965 56.7168C28.0176 56.3301 28.1973 55.9941 28.4355 55.709C28.6777 55.4199 28.9766 55.1914 29.332 55.0234C29.6875 54.8555 30.1016 54.7715 30.5742 54.7715C31.0312 54.7715 31.4121 54.8418 31.7168 54.9824C32.0254 55.1191 32.2754 55.3027 32.4668 55.5332C32.6621 55.7598 32.8086 56.0195 32.9062 56.3125C33.0078 56.6055 33.0781 56.9043 33.1172 57.209C33.1367 57.3574 33.1484 57.5078 33.1523 57.6602C33.1602 57.8125 33.1641 57.9609 33.1641 58.1055H28.793ZM30.498 55.6855C30.2441 55.6855 30.0215 55.7227 29.8301 55.7969C29.6426 55.8672 29.4824 55.9707 29.3496 56.1074C29.2168 56.2402 29.1094 56.4043 29.0273 56.5996C28.9492 56.7949 28.8906 57.0137 28.8516 57.2559H31.998C31.9824 57.0293 31.9453 56.8203 31.8867 56.6289C31.832 56.4375 31.7461 56.2715 31.6289 56.1309C31.5117 55.9902 31.3613 55.8809 31.1777 55.8027C30.9941 55.7246 30.7676 55.6855 30.498 55.6855ZM39.0176 56.2129H37.9043V55.8379C37.7754 55.8379 37.6426 55.8633 37.5059 55.9141C37.373 55.9609 37.248 56.0352 37.1309 56.1367C37.0137 56.2344 36.9102 56.3613 36.8203 56.5176C36.7344 56.6699 36.6719 56.8516 36.6328 57.0625V59.9922H37.6641V61H34.6523V59.9922H35.4902L35.4961 55.9375H34.6523V54.9297H36.5918V55.7676C36.6621 55.6426 36.7402 55.5273 36.8262 55.4219C36.916 55.3125 37.0137 55.2188 37.1191 55.1406C37.2285 55.0586 37.3477 54.9961 37.4766 54.9531C37.6094 54.9062 37.752 54.8828 37.9043 54.8828C38.1074 54.8828 38.2988 54.8828 38.4785 54.8828C38.6582 54.8828 38.8379 54.8867 39.0176 54.8945V56.2129ZM43.7812 56.5586C43.7812 56.3945 43.7422 56.2559 43.6641 56.1426C43.5898 56.0254 43.4922 55.9316 43.3711 55.8613C43.25 55.7871 43.1152 55.7344 42.9668 55.7031C42.8184 55.668 42.6738 55.6504 42.5332 55.6504C42.377 55.6504 42.2324 55.668 42.0996 55.7031C41.9707 55.7383 41.8594 55.7891 41.7656 55.8555C41.6719 55.9219 41.5977 56.0039 41.543 56.1016C41.4922 56.1953 41.4668 56.3008 41.4668 56.418C41.4668 56.6211 41.5273 56.7832 41.6484 56.9043C41.7734 57.0215 41.9805 57.1309 42.2695 57.2324L43.4355 57.6426C43.9355 57.8105 44.3008 58.0391 44.5312 58.3281C44.7617 58.6172 44.877 58.9629 44.877 59.3652C44.877 59.6348 44.8223 59.8828 44.7129 60.1094C44.6074 60.332 44.4551 60.5234 44.2559 60.6836C44.0605 60.8398 43.8242 60.9609 43.5469 61.0469C43.2695 61.1367 42.9609 61.1816 42.6211 61.1816C42.1484 61.1816 41.7637 61.1055 41.4668 60.9531C41.1699 60.8008 40.9414 60.5996 40.7812 60.3496H40.1719V59.3418H41.3848C41.3848 59.5098 41.4199 59.6543 41.4902 59.7754C41.5645 59.8926 41.6602 59.9883 41.7773 60.0625C41.8984 60.1367 42.0332 60.1914 42.1816 60.2266C42.334 60.2617 42.4883 60.2793 42.6445 60.2793C42.7969 60.2793 42.9434 60.2617 43.084 60.2266C43.2246 60.1875 43.3477 60.1328 43.4531 60.0625C43.5625 59.9883 43.6484 59.9004 43.7109 59.7988C43.7734 59.6973 43.8047 59.582 43.8047 59.4531C43.8047 59.2578 43.7402 59.0918 43.6113 58.9551C43.4863 58.8184 43.2715 58.6953 42.9668 58.5859L41.8066 58.1523C41.334 57.9844 40.9824 57.7715 40.752 57.5137C40.5254 57.252 40.4121 56.9258 40.4121 56.5352C40.4121 56.2773 40.459 56.0391 40.5527 55.8203C40.6504 55.6016 40.7891 55.4141 40.9688 55.2578C41.1523 55.0977 41.375 54.9727 41.6367 54.8828C41.8984 54.793 42.1973 54.748 42.5332 54.748C42.9668 54.748 43.3301 54.8086 43.623 54.9297C43.916 55.0508 44.1797 55.2578 44.4141 55.5508H44.9824V56.5586H43.7812ZM46.0195 57.9648C46.0234 57.4844 46.0996 57.0469 46.248 56.6523C46.4004 56.2578 46.6113 55.9199 46.8809 55.6387C47.1504 55.3535 47.4707 55.1348 47.8418 54.9824C48.2129 54.8301 48.6211 54.7539 49.0664 54.7539C49.5156 54.7539 49.9258 54.8301 50.2969 54.9824C50.6719 55.1348 50.9922 55.3516 51.2578 55.6328C51.5234 55.9102 51.7305 56.2461 51.8789 56.6406C52.0273 57.0352 52.1016 57.4727 52.1016 57.9531C52.1016 58.4258 52.0273 58.8613 51.8789 59.2598C51.7305 59.6543 51.5234 59.9941 51.2578 60.2793C50.9922 60.5645 50.6719 60.7871 50.2969 60.9473C49.9258 61.1035 49.5156 61.1816 49.0664 61.1816C48.6094 61.1816 48.1953 61.1035 47.8242 60.9473C47.4531 60.791 47.1348 60.5723 46.8691 60.291C46.6035 60.0059 46.3965 59.666 46.248 59.2715C46.0996 58.877 46.0234 58.4414 46.0195 57.9648ZM47.1738 57.9648C47.1738 58.3125 47.2227 58.627 47.3203 58.9082C47.4219 59.1895 47.5586 59.4297 47.7305 59.6289C47.9062 59.8242 48.1074 59.9766 48.334 60.0859C48.5645 60.1914 48.8086 60.2441 49.0664 60.2441C49.3359 60.2441 49.5859 60.1914 49.8164 60.0859C50.0508 59.9805 50.2539 59.8301 50.4258 59.6348C50.5977 59.4355 50.7324 59.1953 50.8301 58.9141C50.9277 58.6328 50.9766 58.3164 50.9766 57.9648C50.9766 57.5977 50.9277 57.2715 50.8301 56.9863C50.7324 56.7012 50.5977 56.4629 50.4258 56.2715C50.2578 56.0801 50.0566 55.9355 49.8223 55.8379C49.5879 55.7402 49.3359 55.6914 49.0664 55.6914C48.8086 55.6914 48.5645 55.7402 48.334 55.8379C48.1074 55.9355 47.9062 56.0801 47.7305 56.2715C47.5586 56.4629 47.4219 56.7012 47.3203 56.9863C47.2227 57.2715 47.1738 57.5977 47.1738 57.9648ZM57.2812 59.9922H58.1367V57.2207C58.1367 56.7559 58.0176 56.4043 57.7793 56.166C57.5449 55.9238 57.207 55.8027 56.7656 55.8027C56.5117 55.8027 56.2559 55.8633 55.998 55.9844C55.7402 56.1055 55.4961 56.2559 55.2656 56.4355V59.9922H56.1211V61H53.2852V59.9922H54.1289V55.9375H53.2852V54.9297H55.2188V55.6445H55.2305C55.3594 55.5312 55.4961 55.4238 55.6406 55.3223C55.7891 55.2207 55.9434 55.1328 56.1035 55.0586C56.2637 54.9844 56.4297 54.9258 56.6016 54.8828C56.7773 54.8398 56.9609 54.8184 57.1523 54.8184C57.4766 54.8184 57.7695 54.8633 58.0312 54.9531C58.293 55.043 58.5156 55.1797 58.6992 55.3633C58.8828 55.5469 59.0234 55.7832 59.1211 56.0723C59.2227 56.3574 59.2734 56.6953 59.2734 57.0859V59.9922H60.1172V61H57.2812V59.9922ZM64.8574 60.4375C64.627 60.6523 64.3711 60.8281 64.0898 60.9648C63.8125 61.1016 63.4961 61.1699 63.1406 61.1699C62.8438 61.1699 62.5703 61.123 62.3203 61.0293C62.0742 60.9355 61.8613 60.8086 61.6816 60.6484C61.502 60.4844 61.3613 60.2949 61.2598 60.0801C61.1621 59.8652 61.1133 59.6367 61.1133 59.3945C61.1133 59.1367 61.1504 58.9082 61.2246 58.709C61.3027 58.5098 61.4043 58.3379 61.5293 58.1934C61.6582 58.0449 61.8066 57.9219 61.9746 57.8242C62.1465 57.7227 62.3242 57.6426 62.5078 57.584C62.6953 57.5215 62.8848 57.4785 63.0762 57.4551C63.2715 57.4277 63.457 57.4141 63.6328 57.4141C63.9141 57.4141 64.1504 57.4238 64.3418 57.4434C64.5332 57.459 64.707 57.4824 64.8633 57.5137L64.8691 57.0156C64.8691 56.8008 64.8379 56.6152 64.7754 56.459C64.7129 56.2988 64.625 56.168 64.5117 56.0664C64.3984 55.9609 64.2617 55.8828 64.1016 55.832C63.9453 55.7812 63.7695 55.7559 63.5742 55.7559C63.3906 55.7559 63.2148 55.7695 63.0469 55.7969C62.8789 55.8203 62.7207 55.8535 62.5723 55.8965C62.4277 55.9355 62.293 55.9824 62.168 56.0371C62.0469 56.0879 61.9434 56.1426 61.8574 56.2012L61.5 55.4453C61.6445 55.3516 61.8027 55.2656 61.9746 55.1875C62.1465 55.1055 62.3262 55.0371 62.5137 54.9824C62.7051 54.9238 62.8984 54.8789 63.0938 54.8477C63.293 54.8125 63.4883 54.7949 63.6797 54.7949C64.0312 54.7949 64.3477 54.8379 64.6289 54.9238C64.9102 55.0059 65.1484 55.1348 65.3438 55.3105C65.5391 55.4863 65.6895 55.7109 65.7949 55.9844C65.9004 56.2539 65.9531 56.5781 65.9531 56.957L65.9473 59.9922H66.6211V61H64.8574V60.4375ZM63.3809 60.2559C63.5254 60.2559 63.6699 60.2383 63.8145 60.2031C63.959 60.168 64.0957 60.1211 64.2246 60.0625C64.3535 60 64.4727 59.9297 64.582 59.8516C64.6914 59.7695 64.7832 59.6855 64.8574 59.5996L64.8633 58.2285H63.5977C63.3867 58.2285 63.1934 58.252 63.0176 58.2988C62.8457 58.3457 62.6953 58.4141 62.5664 58.5039C62.4414 58.5938 62.3438 58.7051 62.2734 58.8379C62.2031 58.9707 62.168 59.123 62.168 59.2949C62.168 59.4551 62.1973 59.5957 62.2559 59.7168C62.3145 59.834 62.3965 59.9336 62.502 60.0156C62.6113 60.0938 62.7402 60.1543 62.8887 60.1973C63.0371 60.2363 63.2012 60.2559 63.3809 60.2559ZM67.8047 51.8828H69.7734V59.9922H70.6875V61H67.8047V59.9922H68.6836V52.8906H67.8047V51.8828ZM73.8223 59.9922H74.6367V53.0781H72.6094V54.4609H71.4082V52.1172H79.3301V54.4609H78.1289V53.0781H75.7852V59.9922H76.6992V61H73.8223V59.9922ZM84.5215 56.2129H83.4082V55.8379C83.2793 55.8379 83.1465 55.8633 83.0098 55.9141C82.877 55.9609 82.752 56.0352 82.6348 56.1367C82.5176 56.2344 82.4141 56.3613 82.3242 56.5176C82.2383 56.6699 82.1758 56.8516 82.1367 57.0625V59.9922H83.168V61H80.1562V59.9922H80.9941L81 55.9375H80.1562V54.9297H82.0957V55.7676C82.166 55.6426 82.2441 55.5273 82.3301 55.4219C82.4199 55.3125 82.5176 55.2188 82.623 55.1406C82.7324 55.0586 82.8516 54.9961 82.9805 54.9531C83.1133 54.9062 83.2559 54.8828 83.4082 54.8828C83.6113 54.8828 83.8027 54.8828 83.9824 54.8828C84.1621 54.8828 84.3418 54.8867 84.5215 54.8945V56.2129ZM89.3496 60.4375C89.1191 60.6523 88.8633 60.8281 88.582 60.9648C88.3047 61.1016 87.9883 61.1699 87.6328 61.1699C87.3359 61.1699 87.0625 61.123 86.8125 61.0293C86.5664 60.9355 86.3535 60.8086 86.1738 60.6484C85.9941 60.4844 85.8535 60.2949 85.752 60.0801C85.6543 59.8652 85.6055 59.6367 85.6055 59.3945C85.6055 59.1367 85.6426 58.9082 85.7168 58.709C85.7949 58.5098 85.8965 58.3379 86.0215 58.1934C86.1504 58.0449 86.2988 57.9219 86.4668 57.8242C86.6387 57.7227 86.8164 57.6426 87 57.584C87.1875 57.5215 87.377 57.4785 87.5684 57.4551C87.7637 57.4277 87.9492 57.4141 88.125 57.4141C88.4062 57.4141 88.6426 57.4238 88.834 57.4434C89.0254 57.459 89.1992 57.4824 89.3555 57.5137L89.3613 57.0156C89.3613 56.8008 89.3301 56.6152 89.2676 56.459C89.2051 56.2988 89.1172 56.168 89.0039 56.0664C88.8906 55.9609 88.7539 55.8828 88.5938 55.832C88.4375 55.7812 88.2617 55.7559 88.0664 55.7559C87.8828 55.7559 87.707 55.7695 87.5391 55.7969C87.3711 55.8203 87.2129 55.8535 87.0645 55.8965C86.9199 55.9355 86.7852 55.9824 86.6602 56.0371C86.5391 56.0879 86.4355 56.1426 86.3496 56.2012L85.9922 55.4453C86.1367 55.3516 86.2949 55.2656 86.4668 55.1875C86.6387 55.1055 86.8184 55.0371 87.0059 54.9824C87.1973 54.9238 87.3906 54.8789 87.5859 54.8477C87.7852 54.8125 87.9805 54.7949 88.1719 54.7949C88.5234 54.7949 88.8398 54.8379 89.1211 54.9238C89.4023 55.0059 89.6406 55.1348 89.8359 55.3105C90.0312 55.4863 90.1816 55.7109 90.2871 55.9844C90.3926 56.2539 90.4453 56.5781 90.4453 56.957L90.4395 59.9922H91.1133V61H89.3496V60.4375ZM87.873 60.2559C88.0176 60.2559 88.1621 60.2383 88.3066 60.2031C88.4512 60.168 88.5879 60.1211 88.7168 60.0625C88.8457 60 88.9648 59.9297 89.0742 59.8516C89.1836 59.7695 89.2754 59.6855 89.3496 59.5996L89.3555 58.2285H88.0898C87.8789 58.2285 87.6855 58.252 87.5098 58.2988C87.3379 58.3457 87.1875 58.4141 87.0586 58.5039C86.9336 58.5938 86.8359 58.7051 86.7656 58.8379C86.6953 58.9707 86.6602 59.123 86.6602 59.2949C86.6602 59.4551 86.6895 59.5957 86.748 59.7168C86.8066 59.834 86.8887 59.9336 86.9941 60.0156C87.1035 60.0938 87.2324 60.1543 87.3809 60.1973C87.5293 60.2363 87.6934 60.2559 87.873 60.2559ZM92.2969 54.9297H94.2773V59.9922H95.1914V61H92.3086V59.9922H93.1758V55.9375H92.2969V54.9297ZM92.9707 52.7793C92.9707 52.6777 92.9902 52.582 93.0293 52.4922C93.0723 52.3984 93.127 52.3184 93.1934 52.252C93.2637 52.1816 93.3457 52.127 93.4395 52.0879C93.5332 52.0449 93.6328 52.0234 93.7383 52.0234C93.8398 52.0234 93.9355 52.0449 94.0254 52.0879C94.1191 52.127 94.1992 52.1816 94.2656 52.252C94.3359 52.3184 94.3906 52.3984 94.4297 52.4922C94.4727 52.582 94.4941 52.6777 94.4941 52.7793C94.4941 52.8848 94.4727 52.9844 94.4297 53.0781C94.3906 53.1719 94.3359 53.2559 94.2656 53.3301C94.1992 53.4004 94.1191 53.457 94.0254 53.5C93.9355 53.5391 93.8398 53.5586 93.7383 53.5586C93.6328 53.5586 93.5332 53.5391 93.4395 53.5C93.3457 53.457 93.2637 53.4004 93.1934 53.3301C93.127 53.2559 93.0723 53.1719 93.0293 53.0781C92.9902 52.9844 92.9707 52.8848 92.9707 52.7793ZM100.195 59.9922H101.051V57.2207C101.051 56.7559 100.932 56.4043 100.693 56.166C100.459 55.9238 100.121 55.8027 99.6797 55.8027C99.4258 55.8027 99.1699 55.8633 98.9121 55.9844C98.6543 56.1055 98.4102 56.2559 98.1797 56.4355V59.9922H99.0352V61H96.1992V59.9922H97.043V55.9375H96.1992V54.9297H98.1328V55.6445H98.1445C98.2734 55.5312 98.4102 55.4238 98.5547 55.3223C98.7031 55.2207 98.8574 55.1328 99.0176 55.0586C99.1777 54.9844 99.3438 54.9258 99.5156 54.8828C99.6914 54.8398 99.875 54.8184 100.066 54.8184C100.391 54.8184 100.684 54.8633 100.945 54.9531C101.207 55.043 101.43 55.1797 101.613 55.3633C101.797 55.5469 101.938 55.7832 102.035 56.0723C102.137 56.3574 102.188 56.6953 102.188 57.0859V59.9922H103.031V61H100.195V59.9922ZM105.234 58.1055C105.234 58.2773 105.246 58.4355 105.27 58.5801C105.297 58.7207 105.334 58.8555 105.381 58.9844C105.525 59.375 105.756 59.6699 106.072 59.8691C106.393 60.0645 106.754 60.1621 107.156 60.1621C107.473 60.1621 107.779 60.1191 108.076 60.0332C108.377 59.9434 108.691 59.8047 109.02 59.6172L109.459 60.3613C109.061 60.6348 108.66 60.8379 108.258 60.9707C107.855 61.1035 107.438 61.1699 107.004 61.1699C106.594 61.1699 106.213 61.1016 105.861 60.9648C105.514 60.8281 105.213 60.625 104.959 60.3555C104.709 60.0859 104.512 59.75 104.367 59.3477C104.227 58.9453 104.156 58.4766 104.156 57.9414C104.156 57.5078 104.217 57.0996 104.338 56.7168C104.459 56.3301 104.639 55.9941 104.877 55.709C105.119 55.4199 105.418 55.1914 105.773 55.0234C106.129 54.8555 106.543 54.7715 107.016 54.7715C107.473 54.7715 107.854 54.8418 108.158 54.9824C108.467 55.1191 108.717 55.3027 108.908 55.5332C109.104 55.7598 109.25 56.0195 109.348 56.3125C109.449 56.6055 109.52 56.9043 109.559 57.209C109.578 57.3574 109.59 57.5078 109.594 57.6602C109.602 57.8125 109.605 57.9609 109.605 58.1055H105.234ZM106.939 55.6855C106.686 55.6855 106.463 55.7227 106.271 55.7969C106.084 55.8672 105.924 55.9707 105.791 56.1074C105.658 56.2402 105.551 56.4043 105.469 56.5996C105.391 56.7949 105.332 57.0137 105.293 57.2559H108.439C108.424 57.0293 108.387 56.8203 108.328 56.6289C108.273 56.4375 108.188 56.2715 108.07 56.1309C107.953 55.9902 107.803 55.8809 107.619 55.8027C107.436 55.7246 107.209 55.6855 106.939 55.6855ZM115.459 56.2129H114.346V55.8379C114.217 55.8379 114.084 55.8633 113.947 55.9141C113.814 55.9609 113.689 56.0352 113.572 56.1367C113.455 56.2344 113.352 56.3613 113.262 56.5176C113.176 56.6699 113.113 56.8516 113.074 57.0625V59.9922H114.105V61H111.094V59.9922H111.932L111.938 55.9375H111.094V54.9297H113.033V55.7676C113.104 55.6426 113.182 55.5273 113.268 55.4219C113.357 55.3125 113.455 55.2188 113.561 55.1406C113.67 55.0586 113.789 54.9961 113.918 54.9531C114.051 54.9062 114.193 54.8828 114.346 54.8828C114.549 54.8828 114.74 54.8828 114.92 54.8828C115.1 54.8828 115.279 54.8867 115.459 54.8945V56.2129Z" fill="#767676"/>
<line x1="29.9955" y1="72.0087" x2="87.9955" y2="72.0087" stroke="#767676"/>
<path d="M4.41895 80.5586H7.60059V81.8154H7V81.0654H5.41504V82.4863H6.74805V82.9902H5.41504V84.4961H7V83.7461H7.60059V85H4.41895V84.4961H4.84082V81.0654H4.41895V80.5586ZM10.0586 84.4961H10.4863V83.1104C10.4863 82.8779 10.4268 82.7021 10.3076 82.583C10.1904 82.4619 10.0215 82.4014 9.80078 82.4014C9.67383 82.4014 9.5459 82.4316 9.41699 82.4922C9.28809 82.5527 9.16602 82.6279 9.05078 82.7178V84.4961H9.47852V85H8.06055V84.4961H8.48242V82.4688H8.06055V81.9648H9.02734V82.3223H9.0332C9.09766 82.2656 9.16602 82.2119 9.23828 82.1611C9.3125 82.1104 9.38965 82.0664 9.46973 82.0293C9.5498 81.9922 9.63281 81.9629 9.71875 81.9414C9.80664 81.9199 9.89844 81.9092 9.99414 81.9092C10.1562 81.9092 10.3027 81.9316 10.4336 81.9766C10.5645 82.0215 10.6758 82.0898 10.7676 82.1816C10.8594 82.2734 10.9297 82.3916 10.9785 82.5361C11.0293 82.6787 11.0547 82.8477 11.0547 83.043V84.4961H11.4766V85H10.0586V84.4961ZM14.2539 82.7734C14.1719 82.627 14.0674 82.5195 13.9404 82.4512C13.8154 82.3828 13.6699 82.3486 13.5039 82.3486C13.377 82.3486 13.2578 82.375 13.1465 82.4277C13.0352 82.4805 12.9375 82.5557 12.8535 82.6533C12.7715 82.751 12.7061 82.8701 12.6572 83.0107C12.6104 83.1494 12.5869 83.3047 12.5869 83.4766C12.5869 83.6465 12.6104 83.7998 12.6572 83.9365C12.7061 84.0732 12.7725 84.1904 12.8564 84.2881C12.9404 84.3838 13.0371 84.458 13.1465 84.5107C13.2578 84.5615 13.377 84.5869 13.5039 84.5869C13.6914 84.5869 13.8545 84.542 13.9932 84.4521C14.1318 84.3604 14.2422 84.2266 14.3242 84.0508L14.7754 84.2734C14.7168 84.3984 14.6445 84.5107 14.5586 84.6104C14.4727 84.71 14.375 84.7949 14.2656 84.8652C14.1582 84.9355 14.0391 84.9893 13.9082 85.0264C13.7793 85.0654 13.6426 85.085 13.498 85.085C13.2871 85.085 13.0918 85.0459 12.9121 84.9678C12.7344 84.8877 12.5801 84.7764 12.4492 84.6338C12.3203 84.4912 12.2197 84.3213 12.1475 84.124C12.0752 83.9268 12.0391 83.7109 12.0391 83.4766C12.0391 83.2422 12.0771 83.0264 12.1533 82.8291C12.2295 82.6318 12.334 82.4629 12.4668 82.3223C12.5996 82.1797 12.7549 82.0684 12.9326 81.9883C13.1104 81.9082 13.3008 81.8682 13.5039 81.8682C13.6953 81.8682 13.876 81.9014 14.0459 81.9678C14.2178 82.0342 14.3682 82.1348 14.4971 82.2695H14.8047V82.7734H14.2539ZM15.2969 83.4824C15.2988 83.2422 15.3369 83.0234 15.4111 82.8262C15.4873 82.6289 15.5928 82.46 15.7275 82.3193C15.8623 82.1768 16.0225 82.0674 16.208 81.9912C16.3936 81.915 16.5977 81.877 16.8203 81.877C17.0449 81.877 17.25 81.915 17.4355 81.9912C17.623 82.0674 17.7832 82.1758 17.916 82.3164C18.0488 82.4551 18.1523 82.623 18.2266 82.8203C18.3008 83.0176 18.3379 83.2363 18.3379 83.4766C18.3379 83.7129 18.3008 83.9307 18.2266 84.1299C18.1523 84.3271 18.0488 84.4971 17.916 84.6396C17.7832 84.7822 17.623 84.8936 17.4355 84.9736C17.25 85.0518 17.0449 85.0908 16.8203 85.0908C16.5918 85.0908 16.3848 85.0518 16.1992 84.9736C16.0137 84.8955 15.8545 84.7861 15.7217 84.6455C15.5889 84.5029 15.4854 84.333 15.4111 84.1357C15.3369 83.9385 15.2988 83.7207 15.2969 83.4824ZM15.874 83.4824C15.874 83.6562 15.8984 83.8135 15.9473 83.9541C15.998 84.0947 16.0664 84.2148 16.1523 84.3145C16.2402 84.4121 16.3408 84.4883 16.4541 84.543C16.5693 84.5957 16.6914 84.6221 16.8203 84.6221C16.9551 84.6221 17.0801 84.5957 17.1953 84.543C17.3125 84.4902 17.4141 84.415 17.5 84.3174C17.5859 84.2178 17.6533 84.0977 17.7021 83.957C17.751 83.8164 17.7754 83.6582 17.7754 83.4824C17.7754 83.2988 17.751 83.1357 17.7021 82.9932C17.6533 82.8506 17.5859 82.7314 17.5 82.6357C17.416 82.54 17.3154 82.4678 17.1982 82.4189C17.0811 82.3701 16.9551 82.3457 16.8203 82.3457C16.6914 82.3457 16.5693 82.3701 16.4541 82.4189C16.3408 82.4678 16.2402 82.54 16.1523 82.6357C16.0664 82.7314 15.998 82.8506 15.9473 82.9932C15.8984 83.1357 15.874 83.2988 15.874 83.4824ZM20.9277 84.4961H21.3555V83.1104C21.3555 82.8779 21.2959 82.7021 21.1768 82.583C21.0596 82.4619 20.8906 82.4014 20.6699 82.4014C20.543 82.4014 20.415 82.4316 20.2861 82.4922C20.1572 82.5527 20.0352 82.6279 19.9199 82.7178V84.4961H20.3477V85H18.9297V84.4961H19.3516V82.4688H18.9297V81.9648H19.8965V82.3223H19.9023C19.9668 82.2656 20.0352 82.2119 20.1074 82.1611C20.1816 82.1104 20.2588 82.0664 20.3389 82.0293C20.4189 81.9922 20.502 81.9629 20.5879 81.9414C20.6758 81.9199 20.7676 81.9092 20.8633 81.9092C21.0254 81.9092 21.1719 81.9316 21.3027 81.9766C21.4336 82.0215 21.5449 82.0898 21.6367 82.1816C21.7285 82.2734 21.7988 82.3916 21.8477 82.5361C21.8984 82.6787 21.9238 82.8477 21.9238 83.043V84.4961H22.3457V85H20.9277V84.4961ZM23.8105 81.9648H24.5225V82.4072H23.8047L23.7959 84.1592C23.7959 84.2783 23.8096 84.375 23.8369 84.4492C23.8643 84.5234 23.9082 84.5752 23.9688 84.6045C24.0293 84.6318 24.0977 84.6455 24.1738 84.6455C24.2559 84.6455 24.3281 84.6387 24.3906 84.625C24.4531 84.6094 24.5215 84.584 24.5957 84.5488L24.7217 84.915C24.6279 84.9639 24.5293 85.002 24.4258 85.0293C24.3223 85.0586 24.2002 85.0732 24.0596 85.0732C23.9268 85.0732 23.8105 85.0566 23.7109 85.0234C23.6133 84.9922 23.5303 84.9385 23.4619 84.8623C23.3955 84.7861 23.3457 84.6846 23.3125 84.5576C23.2793 84.4287 23.2627 84.2686 23.2627 84.0771L23.2715 82.4072H22.7881V81.9648H23.2773V81.2383L23.8105 80.9863V81.9648ZM27.3467 82.6064H26.79V82.4189C26.7256 82.4189 26.6592 82.4316 26.5908 82.457C26.5244 82.4805 26.4619 82.5176 26.4033 82.5684C26.3447 82.6172 26.293 82.6807 26.248 82.7588C26.2051 82.835 26.1738 82.9258 26.1543 83.0312V84.4961H26.6699V85H25.1641V84.4961H25.583L25.5859 82.4688H25.1641V81.9648H26.1338V82.3838C26.1689 82.3213 26.208 82.2637 26.251 82.2109C26.2959 82.1562 26.3447 82.1094 26.3975 82.0703C26.4521 82.0293 26.5117 81.998 26.5762 81.9766C26.6426 81.9531 26.7139 81.9414 26.79 81.9414C26.8916 81.9414 26.9873 81.9414 27.0771 81.9414C27.167 81.9414 27.2568 81.9434 27.3467 81.9473V82.6064ZM28.4922 83.5527C28.4922 83.6387 28.498 83.7178 28.5098 83.79C28.5234 83.8604 28.542 83.9277 28.5654 83.9922C28.6377 84.1875 28.7529 84.335 28.9111 84.4346C29.0713 84.5322 29.252 84.5811 29.4531 84.5811C29.6113 84.5811 29.7646 84.5596 29.9131 84.5166C30.0635 84.4717 30.2207 84.4023 30.3848 84.3086L30.6045 84.6807C30.4053 84.8174 30.2051 84.9189 30.0039 84.9854C29.8027 85.0518 29.5938 85.085 29.377 85.085C29.1719 85.085 28.9814 85.0508 28.8057 84.9824C28.6318 84.9141 28.4814 84.8125 28.3545 84.6777C28.2295 84.543 28.1309 84.375 28.0586 84.1738C27.9883 83.9727 27.9531 83.7383 27.9531 83.4707C27.9531 83.2539 27.9834 83.0498 28.0439 82.8584C28.1045 82.665 28.1943 82.4971 28.3135 82.3545C28.4346 82.21 28.584 82.0957 28.7617 82.0117C28.9395 81.9277 29.1465 81.8857 29.3828 81.8857C29.6113 81.8857 29.8018 81.9209 29.9541 81.9912C30.1084 82.0596 30.2334 82.1514 30.3291 82.2666C30.4268 82.3799 30.5 82.5098 30.5488 82.6562C30.5996 82.8027 30.6348 82.9521 30.6543 83.1045C30.6641 83.1787 30.6699 83.2539 30.6719 83.3301C30.6758 83.4062 30.6777 83.4805 30.6777 83.5527H28.4922ZM29.3447 82.3428C29.2178 82.3428 29.1064 82.3613 29.0107 82.3984C28.917 82.4336 28.8369 82.4854 28.7705 82.5537C28.7041 82.6201 28.6504 82.7021 28.6094 82.7998C28.5703 82.8975 28.541 83.0068 28.5215 83.1279H30.0947C30.0869 83.0146 30.0684 82.9102 30.0391 82.8145C30.0117 82.7188 29.9688 82.6357 29.9102 82.5654C29.8516 82.4951 29.7764 82.4404 29.6846 82.4014C29.5928 82.3623 29.4795 82.3428 29.3447 82.3428ZM32.6934 83.4824C32.6953 83.2422 32.7334 83.0234 32.8076 82.8262C32.8838 82.6289 32.9893 82.46 33.124 82.3193C33.2588 82.1768 33.4189 82.0674 33.6045 81.9912C33.79 81.915 33.9941 81.877 34.2168 81.877C34.4414 81.877 34.6465 81.915 34.832 81.9912C35.0195 82.0674 35.1797 82.1758 35.3125 82.3164C35.4453 82.4551 35.5488 82.623 35.623 82.8203C35.6973 83.0176 35.7344 83.2363 35.7344 83.4766C35.7344 83.7129 35.6973 83.9307 35.623 84.1299C35.5488 84.3271 35.4453 84.4971 35.3125 84.6396C35.1797 84.7822 35.0195 84.8936 34.832 84.9736C34.6465 85.0518 34.4414 85.0908 34.2168 85.0908C33.9883 85.0908 33.7812 85.0518 33.5957 84.9736C33.4102 84.8955 33.251 84.7861 33.1182 84.6455C32.9854 84.5029 32.8818 84.333 32.8076 84.1357C32.7334 83.9385 32.6953 83.7207 32.6934 83.4824ZM33.2705 83.4824C33.2705 83.6562 33.2949 83.8135 33.3438 83.9541C33.3945 84.0947 33.4629 84.2148 33.5488 84.3145C33.6367 84.4121 33.7373 84.4883 33.8506 84.543C33.9658 84.5957 34.0879 84.6221 34.2168 84.6221C34.3516 84.6221 34.4766 84.5957 34.5918 84.543C34.709 84.4902 34.8105 84.415 34.8965 84.3174C34.9824 84.2178 35.0498 84.0977 35.0986 83.957C35.1475 83.8164 35.1719 83.6582 35.1719 83.4824C35.1719 83.2988 35.1475 83.1357 35.0986 82.9932C35.0498 82.8506 34.9824 82.7314 34.8965 82.6357C34.8125 82.54 34.7119 82.4678 34.5947 82.4189C34.4775 82.3701 34.3516 82.3457 34.2168 82.3457C34.0879 82.3457 33.9658 82.3701 33.8506 82.4189C33.7373 82.4678 33.6367 82.54 33.5488 82.6357C33.4629 82.7314 33.3945 82.8506 33.3438 82.9932C33.2949 83.1357 33.2705 83.2988 33.2705 83.4824ZM38.5176 81.9648H39.2295V82.4072H38.5117L38.5029 84.1592C38.5029 84.2783 38.5166 84.375 38.5439 84.4492C38.5713 84.5234 38.6152 84.5752 38.6758 84.6045C38.7363 84.6318 38.8047 84.6455 38.8809 84.6455C38.9629 84.6455 39.0352 84.6387 39.0977 84.625C39.1602 84.6094 39.2285 84.584 39.3027 84.5488L39.4287 84.915C39.335 84.9639 39.2363 85.002 39.1328 85.0293C39.0293 85.0586 38.9072 85.0732 38.7666 85.0732C38.6338 85.0732 38.5176 85.0566 38.418 85.0234C38.3203 84.9922 38.2373 84.9385 38.1689 84.8623C38.1025 84.7861 38.0527 84.6846 38.0195 84.5576C37.9863 84.4287 37.9697 84.2686 37.9697 84.0771L37.9785 82.4072H37.4951V81.9648H37.9844V81.2383L38.5176 80.9863V81.9648ZM42.0537 82.6064H41.4971V82.4189C41.4326 82.4189 41.3662 82.4316 41.2979 82.457C41.2314 82.4805 41.1689 82.5176 41.1104 82.5684C41.0518 82.6172 41 82.6807 40.9551 82.7588C40.9121 82.835 40.8809 82.9258 40.8613 83.0312V84.4961H41.377V85H39.8711V84.4961H40.29L40.293 82.4688H39.8711V81.9648H40.8408V82.3838C40.876 82.3213 40.915 82.2637 40.958 82.2109C41.0029 82.1562 41.0518 82.1094 41.1045 82.0703C41.1592 82.0293 41.2188 81.998 41.2832 81.9766C41.3496 81.9531 41.4209 81.9414 41.4971 81.9414C41.5986 81.9414 41.6943 81.9414 41.7842 81.9414C41.874 81.9414 41.9639 81.9434 42.0537 81.9473V82.6064ZM43.1992 83.5527C43.1992 83.6387 43.2051 83.7178 43.2168 83.79C43.2305 83.8604 43.249 83.9277 43.2725 83.9922C43.3447 84.1875 43.46 84.335 43.6182 84.4346C43.7783 84.5322 43.959 84.5811 44.1602 84.5811C44.3184 84.5811 44.4717 84.5596 44.6201 84.5166C44.7705 84.4717 44.9277 84.4023 45.0918 84.3086L45.3115 84.6807C45.1123 84.8174 44.9121 84.9189 44.7109 84.9854C44.5098 85.0518 44.3008 85.085 44.084 85.085C43.8789 85.085 43.6885 85.0508 43.5127 84.9824C43.3389 84.9141 43.1885 84.8125 43.0615 84.6777C42.9365 84.543 42.8379 84.375 42.7656 84.1738C42.6953 83.9727 42.6602 83.7383 42.6602 83.4707C42.6602 83.2539 42.6904 83.0498 42.751 82.8584C42.8115 82.665 42.9014 82.4971 43.0205 82.3545C43.1416 82.21 43.291 82.0957 43.4688 82.0117C43.6465 81.9277 43.8535 81.8857 44.0898 81.8857C44.3184 81.8857 44.5088 81.9209 44.6611 81.9912C44.8154 82.0596 44.9404 82.1514 45.0361 82.2666C45.1338 82.3799 45.207 82.5098 45.2559 82.6562C45.3066 82.8027 45.3418 82.9521 45.3613 83.1045C45.3711 83.1787 45.377 83.2539 45.3789 83.3301C45.3828 83.4062 45.3848 83.4805 45.3848 83.5527H43.1992ZM44.0518 82.3428C43.9248 82.3428 43.8135 82.3613 43.7178 82.3984C43.624 82.4336 43.5439 82.4854 43.4775 82.5537C43.4111 82.6201 43.3574 82.7021 43.3164 82.7998C43.2773 82.8975 43.248 83.0068 43.2285 83.1279H44.8018C44.7939 83.0146 44.7754 82.9102 44.7461 82.8145C44.7188 82.7188 44.6758 82.6357 44.6172 82.5654C44.5586 82.4951 44.4834 82.4404 44.3916 82.4014C44.2998 82.3623 44.1865 82.3428 44.0518 82.3428ZM46.1055 81.9648H47.0957V84.4961H47.5527V85H46.1113V84.4961H46.5449V82.4688H46.1055V81.9648ZM46.4424 80.8896C46.4424 80.8389 46.4521 80.791 46.4717 80.7461C46.4932 80.6992 46.5205 80.6592 46.5537 80.626C46.5889 80.5908 46.6299 80.5635 46.6768 80.5439C46.7236 80.5225 46.7734 80.5117 46.8262 80.5117C46.877 80.5117 46.9248 80.5225 46.9697 80.5439C47.0166 80.5635 47.0566 80.5908 47.0898 80.626C47.125 80.6592 47.1523 80.6992 47.1719 80.7461C47.1934 80.791 47.2041 80.8389 47.2041 80.8896C47.2041 80.9424 47.1934 80.9922 47.1719 81.0391C47.1523 81.0859 47.125 81.1279 47.0898 81.165C47.0566 81.2002 47.0166 81.2285 46.9697 81.25C46.9248 81.2695 46.877 81.2793 46.8262 81.2793C46.7734 81.2793 46.7236 81.2695 46.6768 81.25C46.6299 81.2285 46.5889 81.2002 46.5537 81.165C46.5205 81.1279 46.4932 81.0859 46.4717 81.0391C46.4521 80.9922 46.4424 80.9424 46.4424 80.8896ZM50.0547 84.4961H50.4824V83.1104C50.4824 82.8779 50.4229 82.7021 50.3037 82.583C50.1865 82.4619 50.0176 82.4014 49.7969 82.4014C49.6699 82.4014 49.542 82.4316 49.4131 82.4922C49.2842 82.5527 49.1621 82.6279 49.0469 82.7178V84.4961H49.4746V85H48.0566V84.4961H48.4785V82.4688H48.0566V81.9648H49.0234V82.3223H49.0293C49.0938 82.2656 49.1621 82.2119 49.2344 82.1611C49.3086 82.1104 49.3857 82.0664 49.4658 82.0293C49.5459 81.9922 49.6289 81.9629 49.7148 81.9414C49.8027 81.9199 49.8945 81.9092 49.9902 81.9092C50.1523 81.9092 50.2988 81.9316 50.4297 81.9766C50.5605 82.0215 50.6719 82.0898 50.7637 82.1816C50.8555 82.2734 50.9258 82.3916 50.9746 82.5361C51.0254 82.6787 51.0508 82.8477 51.0508 83.043V84.4961H51.4727V85H50.0547V84.4961ZM53.8428 84.7188C53.7275 84.8262 53.5996 84.9141 53.459 84.9824C53.3203 85.0508 53.1621 85.085 52.9844 85.085C52.8359 85.085 52.6992 85.0615 52.5742 85.0146C52.4512 84.9678 52.3447 84.9043 52.2549 84.8242C52.165 84.7422 52.0947 84.6475 52.0439 84.54C51.9951 84.4326 51.9707 84.3184 51.9707 84.1973C51.9707 84.0684 51.9893 83.9541 52.0264 83.8545C52.0654 83.7549 52.1162 83.6689 52.1787 83.5967C52.2432 83.5225 52.3174 83.4609 52.4014 83.4121C52.4873 83.3613 52.5762 83.3213 52.668 83.292C52.7617 83.2607 52.8564 83.2393 52.9521 83.2275C53.0498 83.2139 53.1426 83.207 53.2305 83.207C53.3711 83.207 53.4893 83.2119 53.585 83.2217C53.6807 83.2295 53.7676 83.2412 53.8457 83.2568L53.8486 83.0078C53.8486 82.9004 53.833 82.8076 53.8018 82.7295C53.7705 82.6494 53.7266 82.584 53.6699 82.5332C53.6133 82.4805 53.5449 82.4414 53.4648 82.416C53.3867 82.3906 53.2988 82.3779 53.2012 82.3779C53.1094 82.3779 53.0215 82.3848 52.9375 82.3984C52.8535 82.4102 52.7744 82.4268 52.7002 82.4482C52.6279 82.4678 52.5605 82.4912 52.498 82.5186C52.4375 82.5439 52.3857 82.5713 52.3428 82.6006L52.1641 82.2227C52.2363 82.1758 52.3154 82.1328 52.4014 82.0938C52.4873 82.0527 52.5771 82.0186 52.6709 81.9912C52.7666 81.9619 52.8633 81.9395 52.9609 81.9238C53.0605 81.9062 53.1582 81.8975 53.2539 81.8975C53.4297 81.8975 53.5879 81.9189 53.7285 81.9619C53.8691 82.0029 53.9883 82.0674 54.0859 82.1553C54.1836 82.2432 54.2588 82.3555 54.3115 82.4922C54.3643 82.627 54.3906 82.7891 54.3906 82.9785L54.3877 84.4961H54.7246V85H53.8428V84.7188ZM53.1045 84.6279C53.1768 84.6279 53.249 84.6191 53.3213 84.6016C53.3936 84.584 53.4619 84.5605 53.5264 84.5312C53.5908 84.5 53.6504 84.4648 53.7051 84.4258C53.7598 84.3848 53.8057 84.3428 53.8428 84.2998L53.8457 83.6143H53.2129C53.1074 83.6143 53.0107 83.626 52.9229 83.6494C52.8369 83.6729 52.7617 83.707 52.6973 83.752C52.6348 83.7969 52.5859 83.8525 52.5508 83.9189C52.5156 83.9854 52.498 84.0615 52.498 84.1475C52.498 84.2275 52.5127 84.2979 52.542 84.3584C52.5713 84.417 52.6123 84.4668 52.665 84.5078C52.7197 84.5469 52.7842 84.5771 52.8584 84.5986C52.9326 84.6182 53.0146 84.6279 53.1045 84.6279ZM57.1299 80.4414H58.0879V84.4961H58.5332V85H57.543V84.751C57.4453 84.8506 57.332 84.9287 57.2031 84.9854C57.0742 85.04 56.9277 85.0674 56.7637 85.0674C56.5586 85.0674 56.3672 85.0322 56.1895 84.9619C56.0137 84.8896 55.8604 84.7852 55.7295 84.6484C55.6006 84.5098 55.499 84.3408 55.4248 84.1416C55.3525 83.9404 55.3164 83.7109 55.3164 83.4531C55.3164 83.2188 55.3516 83.0059 55.4219 82.8145C55.4922 82.6211 55.5918 82.457 55.7207 82.3223C55.8496 82.1855 56.0049 82.0801 56.1865 82.0059C56.3682 81.9297 56.5703 81.8916 56.793 81.8916C56.9395 81.8916 57.0732 81.9082 57.1943 81.9414C57.3154 81.9727 57.4316 82.0283 57.543 82.1084V80.9453H57.1299V80.4414ZM56.834 84.5928C56.9961 84.5928 57.1318 84.5693 57.2412 84.5225C57.3506 84.4736 57.4512 84.4014 57.543 84.3057V82.6064C57.4453 82.5244 57.333 82.4648 57.2061 82.4277C57.0791 82.3906 56.9492 82.3721 56.8164 82.3721C56.6875 82.3721 56.5664 82.3965 56.4531 82.4453C56.3398 82.4922 56.2402 82.5615 56.1543 82.6533C56.0703 82.7451 56.0039 82.8574 55.9551 82.9902C55.9062 83.123 55.8818 83.2754 55.8818 83.4473C55.8818 83.6348 55.9053 83.7998 55.9521 83.9424C55.999 84.085 56.0645 84.2051 56.1484 84.3027C56.2324 84.3984 56.333 84.4707 56.4502 84.5195C56.5674 84.5684 56.6953 84.5928 56.834 84.5928ZM59.0137 83.4824C59.0156 83.2422 59.0537 83.0234 59.1279 82.8262C59.2041 82.6289 59.3096 82.46 59.4443 82.3193C59.5791 82.1768 59.7393 82.0674 59.9248 81.9912C60.1104 81.915 60.3145 81.877 60.5371 81.877C60.7617 81.877 60.9668 81.915 61.1523 81.9912C61.3398 82.0674 61.5 82.1758 61.6328 82.3164C61.7656 82.4551 61.8691 82.623 61.9434 82.8203C62.0176 83.0176 62.0547 83.2363 62.0547 83.4766C62.0547 83.7129 62.0176 83.9307 61.9434 84.1299C61.8691 84.3271 61.7656 84.4971 61.6328 84.6396C61.5 84.7822 61.3398 84.8936 61.1523 84.9736C60.9668 85.0518 60.7617 85.0908 60.5371 85.0908C60.3086 85.0908 60.1016 85.0518 59.916 84.9736C59.7305 84.8955 59.5713 84.7861 59.4385 84.6455C59.3057 84.5029 59.2021 84.333 59.1279 84.1357C59.0537 83.9385 59.0156 83.7207 59.0137 83.4824ZM59.5908 83.4824C59.5908 83.6562 59.6152 83.8135 59.6641 83.9541C59.7148 84.0947 59.7832 84.2148 59.8691 84.3145C59.957 84.4121 60.0576 84.4883 60.1709 84.543C60.2861 84.5957 60.4082 84.6221 60.5371 84.6221C60.6719 84.6221 60.7969 84.5957 60.9121 84.543C61.0293 84.4902 61.1309 84.415 61.2168 84.3174C61.3027 84.2178 61.3701 84.0977 61.4189 83.957C61.4678 83.8164 61.4922 83.6582 61.4922 83.4824C61.4922 83.2988 61.4678 83.1357 61.4189 82.9932C61.3701 82.8506 61.3027 82.7314 61.2168 82.6357C61.1328 82.54 61.0322 82.4678 60.915 82.4189C60.7979 82.3701 60.6719 82.3457 60.5371 82.3457C60.4082 82.3457 60.2861 82.3701 60.1709 82.4189C60.0576 82.4678 59.957 82.54 59.8691 82.6357C59.7832 82.7314 59.7148 82.8506 59.6641 82.9932C59.6152 83.1357 59.5908 83.2988 59.5908 83.4824ZM64.8291 82.6064H64.2725V82.4189C64.208 82.4189 64.1416 82.4316 64.0732 82.457C64.0068 82.4805 63.9443 82.5176 63.8857 82.5684C63.8271 82.6172 63.7754 82.6807 63.7305 82.7588C63.6875 82.835 63.6562 82.9258 63.6367 83.0312V84.4961H64.1523V85H62.6465V84.4961H63.0654L63.0684 82.4688H62.6465V81.9648H63.6162V82.3838C63.6514 82.3213 63.6904 82.2637 63.7334 82.2109C63.7783 82.1562 63.8271 82.1094 63.8799 82.0703C63.9346 82.0293 63.9941 81.998 64.0586 81.9766C64.125 81.9531 64.1963 81.9414 64.2725 81.9414C64.374 81.9414 64.4697 81.9414 64.5596 81.9414C64.6494 81.9414 64.7393 81.9434 64.8291 81.9473V82.6064ZM68.9629 82.7734C68.8809 82.627 68.7764 82.5195 68.6494 82.4512C68.5244 82.3828 68.3789 82.3486 68.2129 82.3486C68.0859 82.3486 67.9668 82.375 67.8555 82.4277C67.7441 82.4805 67.6465 82.5557 67.5625 82.6533C67.4805 82.751 67.415 82.8701 67.3662 83.0107C67.3193 83.1494 67.2959 83.3047 67.2959 83.4766C67.2959 83.6465 67.3193 83.7998 67.3662 83.9365C67.415 84.0732 67.4814 84.1904 67.5654 84.2881C67.6494 84.3838 67.7461 84.458 67.8555 84.5107C67.9668 84.5615 68.0859 84.5869 68.2129 84.5869C68.4004 84.5869 68.5635 84.542 68.7021 84.4521C68.8408 84.3604 68.9512 84.2266 69.0332 84.0508L69.4844 84.2734C69.4258 84.3984 69.3535 84.5107 69.2676 84.6104C69.1816 84.71 69.084 84.7949 68.9746 84.8652C68.8672 84.9355 68.748 84.9893 68.6172 85.0264C68.4883 85.0654 68.3516 85.085 68.207 85.085C67.9961 85.085 67.8008 85.0459 67.6211 84.9678C67.4434 84.8877 67.2891 84.7764 67.1582 84.6338C67.0293 84.4912 66.9287 84.3213 66.8564 84.124C66.7842 83.9268 66.748 83.7109 66.748 83.4766C66.748 83.2422 66.7861 83.0264 66.8623 82.8291C66.9385 82.6318 67.043 82.4629 67.1758 82.3223C67.3086 82.1797 67.4639 82.0684 67.6416 81.9883C67.8193 81.9082 68.0098 81.8682 68.2129 81.8682C68.4043 81.8682 68.585 81.9014 68.7549 81.9678C68.9268 82.0342 69.0771 82.1348 69.2061 82.2695H69.5137V82.7734H68.9629ZM70.5625 83.5527C70.5625 83.6387 70.5684 83.7178 70.5801 83.79C70.5938 83.8604 70.6123 83.9277 70.6357 83.9922C70.708 84.1875 70.8232 84.335 70.9814 84.4346C71.1416 84.5322 71.3223 84.5811 71.5234 84.5811C71.6816 84.5811 71.835 84.5596 71.9834 84.5166C72.1338 84.4717 72.291 84.4023 72.4551 84.3086L72.6748 84.6807C72.4756 84.8174 72.2754 84.9189 72.0742 84.9854C71.873 85.0518 71.6641 85.085 71.4473 85.085C71.2422 85.085 71.0518 85.0508 70.876 84.9824C70.7021 84.9141 70.5518 84.8125 70.4248 84.6777C70.2998 84.543 70.2012 84.375 70.1289 84.1738C70.0586 83.9727 70.0234 83.7383 70.0234 83.4707C70.0234 83.2539 70.0537 83.0498 70.1143 82.8584C70.1748 82.665 70.2646 82.4971 70.3838 82.3545C70.5049 82.21 70.6543 82.0957 70.832 82.0117C71.0098 81.9277 71.2168 81.8857 71.4531 81.8857C71.6816 81.8857 71.8721 81.9209 72.0244 81.9912C72.1787 82.0596 72.3037 82.1514 72.3994 82.2666C72.4971 82.3799 72.5703 82.5098 72.6191 82.6562C72.6699 82.8027 72.7051 82.9521 72.7246 83.1045C72.7344 83.1787 72.7402 83.2539 72.7422 83.3301C72.7461 83.4062 72.748 83.4805 72.748 83.5527H70.5625ZM71.415 82.3428C71.2881 82.3428 71.1768 82.3613 71.0811 82.3984C70.9873 82.4336 70.9072 82.4854 70.8408 82.5537C70.7744 82.6201 70.7207 82.7021 70.6797 82.7998C70.6406 82.8975 70.6113 83.0068 70.5918 83.1279H72.165C72.1572 83.0146 72.1387 82.9102 72.1094 82.8145C72.082 82.7188 72.0391 82.6357 71.9805 82.5654C71.9219 82.4951 71.8467 82.4404 71.7549 82.4014C71.6631 82.3623 71.5498 82.3428 71.415 82.3428ZM75.6748 82.6064H75.1182V82.4189C75.0537 82.4189 74.9873 82.4316 74.9189 82.457C74.8525 82.4805 74.79 82.5176 74.7314 82.5684C74.6729 82.6172 74.6211 82.6807 74.5762 82.7588C74.5332 82.835 74.502 82.9258 74.4824 83.0312V84.4961H74.998V85H73.4922V84.4961H73.9111L73.9141 82.4688H73.4922V81.9648H74.4619V82.3838C74.4971 82.3213 74.5361 82.2637 74.5791 82.2109C74.624 82.1562 74.6729 82.1094 74.7256 82.0703C74.7803 82.0293 74.8398 81.998 74.9043 81.9766C74.9707 81.9531 75.042 81.9414 75.1182 81.9414C75.2197 81.9414 75.3154 81.9414 75.4053 81.9414C75.4951 81.9414 75.585 81.9434 75.6748 81.9473V82.6064ZM77.1836 81.9648H77.8955V82.4072H77.1777L77.1689 84.1592C77.1689 84.2783 77.1826 84.375 77.21 84.4492C77.2373 84.5234 77.2812 84.5752 77.3418 84.6045C77.4023 84.6318 77.4707 84.6455 77.5469 84.6455C77.6289 84.6455 77.7012 84.6387 77.7637 84.625C77.8262 84.6094 77.8945 84.584 77.9688 84.5488L78.0947 84.915C78.001 84.9639 77.9023 85.002 77.7988 85.0293C77.6953 85.0586 77.5732 85.0732 77.4326 85.0732C77.2998 85.0732 77.1836 85.0566 77.084 85.0234C76.9863 84.9922 76.9033 84.9385 76.835 84.8623C76.7686 84.7861 76.7188 84.6846 76.6855 84.5576C76.6523 84.4287 76.6357 84.2686 76.6357 84.0771L76.6445 82.4072H76.1611V81.9648H76.6504V81.2383L77.1836 80.9863V81.9648ZM78.4961 83.4824C78.498 83.2422 78.5361 83.0234 78.6104 82.8262C78.6865 82.6289 78.792 82.46 78.9268 82.3193C79.0615 82.1768 79.2217 82.0674 79.4072 81.9912C79.5928 81.915 79.7969 81.877 80.0195 81.877C80.2441 81.877 80.4492 81.915 80.6348 81.9912C80.8223 82.0674 80.9824 82.1758 81.1152 82.3164C81.248 82.4551 81.3516 82.623 81.4258 82.8203C81.5 83.0176 81.5371 83.2363 81.5371 83.4766C81.5371 83.7129 81.5 83.9307 81.4258 84.1299C81.3516 84.3271 81.248 84.4971 81.1152 84.6396C80.9824 84.7822 80.8223 84.8936 80.6348 84.9736C80.4492 85.0518 80.2441 85.0908 80.0195 85.0908C79.791 85.0908 79.584 85.0518 79.3984 84.9736C79.2129 84.8955 79.0537 84.7861 78.9209 84.6455C78.7881 84.5029 78.6846 84.333 78.6104 84.1357C78.5361 83.9385 78.498 83.7207 78.4961 83.4824ZM79.0732 83.4824C79.0732 83.6562 79.0977 83.8135 79.1465 83.9541C79.1973 84.0947 79.2656 84.2148 79.3516 84.3145C79.4395 84.4121 79.54 84.4883 79.6533 84.543C79.7686 84.5957 79.8906 84.6221 80.0195 84.6221C80.1543 84.6221 80.2793 84.5957 80.3945 84.543C80.5117 84.4902 80.6133 84.415 80.6992 84.3174C80.7852 84.2178 80.8525 84.0977 80.9014 83.957C80.9502 83.8164 80.9746 83.6582 80.9746 83.4824C80.9746 83.2988 80.9502 83.1357 80.9014 82.9932C80.8525 82.8506 80.7852 82.7314 80.6992 82.6357C80.6152 82.54 80.5146 82.4678 80.3975 82.4189C80.2803 82.3701 80.1543 82.3457 80.0195 82.3457C79.8906 82.3457 79.7686 82.3701 79.6533 82.4189C79.54 82.4678 79.4395 82.54 79.3516 82.6357C79.2656 82.7314 79.1973 82.8506 79.1465 82.9932C79.0977 83.1357 79.0732 83.2988 79.0732 83.4824ZM83.3213 81.9648H84.2881V82.2168C84.417 82.1172 84.5576 82.0381 84.71 81.9795C84.8623 81.9209 85.0195 81.8916 85.1816 81.8916C85.3809 81.8916 85.5635 81.9287 85.7295 82.0029C85.8955 82.0771 86.0381 82.1816 86.1572 82.3164C86.2783 82.4512 86.3721 82.6133 86.4385 82.8027C86.5049 82.9902 86.5381 83.1982 86.5381 83.4268C86.5381 83.6709 86.501 83.8936 86.4268 84.0947C86.3525 84.2959 86.249 84.4688 86.1162 84.6133C85.9854 84.7559 85.8291 84.8672 85.6475 84.9473C85.4658 85.0273 85.2666 85.0674 85.0498 85.0674C84.8955 85.0674 84.7578 85.0508 84.6367 85.0176C84.5176 84.9863 84.4033 84.9453 84.2939 84.8945V85.876H84.7686V86.3799H83.3271V85.876H83.7432V82.4688H83.3213V81.9648ZM85.0381 82.3721C84.8975 82.3721 84.7617 82.4004 84.6309 82.457C84.502 82.5137 84.3896 82.5918 84.2939 82.6914V84.335C84.3584 84.4014 84.4502 84.4609 84.5693 84.5137C84.6904 84.5664 84.8408 84.5928 85.0205 84.5928C85.1455 84.5928 85.2656 84.5684 85.3809 84.5195C85.4961 84.4707 85.5977 84.3984 85.6855 84.3027C85.7734 84.2051 85.8438 84.085 85.8965 83.9424C85.9492 83.7998 85.9756 83.6348 85.9756 83.4473C85.9756 83.2754 85.9502 83.123 85.8994 82.9902C85.8506 82.8574 85.7832 82.7451 85.6973 82.6533C85.6133 82.5615 85.5146 82.4922 85.4014 82.4453C85.2881 82.3965 85.167 82.3721 85.0381 82.3721ZM88.8877 84.7188C88.7725 84.8262 88.6445 84.9141 88.5039 84.9824C88.3652 85.0508 88.207 85.085 88.0293 85.085C87.8809 85.085 87.7441 85.0615 87.6191 85.0146C87.4961 84.9678 87.3896 84.9043 87.2998 84.8242C87.21 84.7422 87.1396 84.6475 87.0889 84.54C87.04 84.4326 87.0156 84.3184 87.0156 84.1973C87.0156 84.0684 87.0342 83.9541 87.0713 83.8545C87.1104 83.7549 87.1611 83.6689 87.2236 83.5967C87.2881 83.5225 87.3623 83.4609 87.4463 83.4121C87.5322 83.3613 87.6211 83.3213 87.7129 83.292C87.8066 83.2607 87.9014 83.2393 87.9971 83.2275C88.0947 83.2139 88.1875 83.207 88.2754 83.207C88.416 83.207 88.5342 83.2119 88.6299 83.2217C88.7256 83.2295 88.8125 83.2412 88.8906 83.2568L88.8936 83.0078C88.8936 82.9004 88.8779 82.8076 88.8467 82.7295C88.8154 82.6494 88.7715 82.584 88.7148 82.5332C88.6582 82.4805 88.5898 82.4414 88.5098 82.416C88.4316 82.3906 88.3438 82.3779 88.2461 82.3779C88.1543 82.3779 88.0664 82.3848 87.9824 82.3984C87.8984 82.4102 87.8193 82.4268 87.7451 82.4482C87.6729 82.4678 87.6055 82.4912 87.543 82.5186C87.4824 82.5439 87.4307 82.5713 87.3877 82.6006L87.209 82.2227C87.2812 82.1758 87.3604 82.1328 87.4463 82.0938C87.5322 82.0527 87.6221 82.0186 87.7158 81.9912C87.8115 81.9619 87.9082 81.9395 88.0059 81.9238C88.1055 81.9062 88.2031 81.8975 88.2988 81.8975C88.4746 81.8975 88.6328 81.9189 88.7734 81.9619C88.9141 82.0029 89.0332 82.0674 89.1309 82.1553C89.2285 82.2432 89.3037 82.3555 89.3564 82.4922C89.4092 82.627 89.4355 82.7891 89.4355 82.9785L89.4326 84.4961H89.7695V85H88.8877V84.7188ZM88.1494 84.6279C88.2217 84.6279 88.2939 84.6191 88.3662 84.6016C88.4385 84.584 88.5068 84.5605 88.5713 84.5312C88.6357 84.5 88.6953 84.4648 88.75 84.4258C88.8047 84.3848 88.8506 84.3428 88.8877 84.2998L88.8906 83.6143H88.2578C88.1523 83.6143 88.0557 83.626 87.9678 83.6494C87.8818 83.6729 87.8066 83.707 87.7422 83.752C87.6797 83.7969 87.6309 83.8525 87.5957 83.9189C87.5605 83.9854 87.543 84.0615 87.543 84.1475C87.543 84.2275 87.5576 84.2979 87.5869 84.3584C87.6162 84.417 87.6572 84.4668 87.71 84.5078C87.7646 84.5469 87.8291 84.5771 87.9033 84.5986C87.9775 84.6182 88.0596 84.6279 88.1494 84.6279ZM92.5674 82.6064H92.0107V82.4189C91.9463 82.4189 91.8799 82.4316 91.8115 82.457C91.7451 82.4805 91.6826 82.5176 91.624 82.5684C91.5654 82.6172 91.5137 82.6807 91.4688 82.7588C91.4258 82.835 91.3945 82.9258 91.375 83.0312V84.4961H91.8906V85H90.3848V84.4961H90.8037L90.8066 82.4688H90.3848V81.9648H91.3545V82.3838C91.3896 82.3213 91.4287 82.2637 91.4717 82.2109C91.5166 82.1562 91.5654 82.1094 91.6182 82.0703C91.6729 82.0293 91.7324 81.998 91.7969 81.9766C91.8633 81.9531 91.9346 81.9414 92.0107 81.9414C92.1123 81.9414 92.208 81.9414 92.2979 81.9414C92.3877 81.9414 92.4775 81.9434 92.5674 81.9473V82.6064ZM94.9814 84.7188C94.8662 84.8262 94.7383 84.9141 94.5977 84.9824C94.459 85.0508 94.3008 85.085 94.123 85.085C93.9746 85.085 93.8379 85.0615 93.7129 85.0146C93.5898 84.9678 93.4834 84.9043 93.3936 84.8242C93.3037 84.7422 93.2334 84.6475 93.1826 84.54C93.1338 84.4326 93.1094 84.3184 93.1094 84.1973C93.1094 84.0684 93.1279 83.9541 93.165 83.8545C93.2041 83.7549 93.2549 83.6689 93.3174 83.5967C93.3818 83.5225 93.4561 83.4609 93.54 83.4121C93.626 83.3613 93.7148 83.3213 93.8066 83.292C93.9004 83.2607 93.9951 83.2393 94.0908 83.2275C94.1885 83.2139 94.2812 83.207 94.3691 83.207C94.5098 83.207 94.6279 83.2119 94.7236 83.2217C94.8193 83.2295 94.9062 83.2412 94.9844 83.2568L94.9873 83.0078C94.9873 82.9004 94.9717 82.8076 94.9404 82.7295C94.9092 82.6494 94.8652 82.584 94.8086 82.5332C94.752 82.4805 94.6836 82.4414 94.6035 82.416C94.5254 82.3906 94.4375 82.3779 94.3398 82.3779C94.248 82.3779 94.1602 82.3848 94.0762 82.3984C93.9922 82.4102 93.9131 82.4268 93.8389 82.4482C93.7666 82.4678 93.6992 82.4912 93.6367 82.5186C93.5762 82.5439 93.5244 82.5713 93.4814 82.6006L93.3027 82.2227C93.375 82.1758 93.4541 82.1328 93.54 82.0938C93.626 82.0527 93.7158 82.0186 93.8096 81.9912C93.9053 81.9619 94.002 81.9395 94.0996 81.9238C94.1992 81.9062 94.2969 81.8975 94.3926 81.8975C94.5684 81.8975 94.7266 81.9189 94.8672 81.9619C95.0078 82.0029 95.127 82.0674 95.2246 82.1553C95.3223 82.2432 95.3975 82.3555 95.4502 82.4922C95.5029 82.627 95.5293 82.7891 95.5293 82.9785L95.5264 84.4961H95.8633V85H94.9814V84.7188ZM94.2432 84.6279C94.3154 84.6279 94.3877 84.6191 94.46 84.6016C94.5322 84.584 94.6006 84.5605 94.665 84.5312C94.7295 84.5 94.7891 84.4648 94.8438 84.4258C94.8984 84.3848 94.9443 84.3428 94.9814 84.2998L94.9844 83.6143H94.3516C94.2461 83.6143 94.1494 83.626 94.0615 83.6494C93.9756 83.6729 93.9004 83.707 93.8359 83.752C93.7734 83.7969 93.7246 83.8525 93.6895 83.9189C93.6543 83.9854 93.6367 84.0615 93.6367 84.1475C93.6367 84.2275 93.6514 84.2979 93.6807 84.3584C93.71 84.417 93.751 84.4668 93.8037 84.5078C93.8584 84.5469 93.9229 84.5771 93.9971 84.5986C94.0713 84.6182 94.1533 84.6279 94.2432 84.6279ZM97.5566 81.9648H98.6055V82.4688H98.3213L99.0713 84.5605L99.8037 82.4688H99.6191V81.9648H100.58V82.4688H100.319L99.3262 85.0469H98.7871L97.7969 82.4688H97.5566V81.9648ZM100.973 83.4824C100.975 83.2422 101.013 83.0234 101.087 82.8262C101.163 82.6289 101.269 82.46 101.403 82.3193C101.538 82.1768 101.698 82.0674 101.884 81.9912C102.069 81.915 102.273 81.877 102.496 81.877C102.721 81.877 102.926 81.915 103.111 81.9912C103.299 82.0674 103.459 82.1758 103.592 82.3164C103.725 82.4551 103.828 82.623 103.902 82.8203C103.977 83.0176 104.014 83.2363 104.014 83.4766C104.014 83.7129 103.977 83.9307 103.902 84.1299C103.828 84.3271 103.725 84.4971 103.592 84.6396C103.459 84.7822 103.299 84.8936 103.111 84.9736C102.926 85.0518 102.721 85.0908 102.496 85.0908C102.268 85.0908 102.061 85.0518 101.875 84.9736C101.689 84.8955 101.53 84.7861 101.397 84.6455C101.265 84.5029 101.161 84.333 101.087 84.1357C101.013 83.9385 100.975 83.7207 100.973 83.4824ZM101.55 83.4824C101.55 83.6562 101.574 83.8135 101.623 83.9541C101.674 84.0947 101.742 84.2148 101.828 84.3145C101.916 84.4121 102.017 84.4883 102.13 84.543C102.245 84.5957 102.367 84.6221 102.496 84.6221C102.631 84.6221 102.756 84.5957 102.871 84.543C102.988 84.4902 103.09 84.415 103.176 84.3174C103.262 84.2178 103.329 84.0977 103.378 83.957C103.427 83.8164 103.451 83.6582 103.451 83.4824C103.451 83.2988 103.427 83.1357 103.378 82.9932C103.329 82.8506 103.262 82.7314 103.176 82.6357C103.092 82.54 102.991 82.4678 102.874 82.4189C102.757 82.3701 102.631 82.3457 102.496 82.3457C102.367 82.3457 102.245 82.3701 102.13 82.4189C102.017 82.4678 101.916 82.54 101.828 82.6357C101.742 82.7314 101.674 82.8506 101.623 82.9932C101.574 83.1357 101.55 83.2988 101.55 83.4824ZM106.797 82.7734C106.715 82.627 106.61 82.5195 106.483 82.4512C106.358 82.3828 106.213 82.3486 106.047 82.3486C105.92 82.3486 105.801 82.375 105.689 82.4277C105.578 82.4805 105.48 82.5557 105.396 82.6533C105.314 82.751 105.249 82.8701 105.2 83.0107C105.153 83.1494 105.13 83.3047 105.13 83.4766C105.13 83.6465 105.153 83.7998 105.2 83.9365C105.249 84.0732 105.315 84.1904 105.399 84.2881C105.483 84.3838 105.58 84.458 105.689 84.5107C105.801 84.5615 105.92 84.5869 106.047 84.5869C106.234 84.5869 106.397 84.542 106.536 84.4521C106.675 84.3604 106.785 84.2266 106.867 84.0508L107.318 84.2734C107.26 84.3984 107.188 84.5107 107.102 84.6104C107.016 84.71 106.918 84.7949 106.809 84.8652C106.701 84.9355 106.582 84.9893 106.451 85.0264C106.322 85.0654 106.186 85.085 106.041 85.085C105.83 85.085 105.635 85.0459 105.455 84.9678C105.277 84.8877 105.123 84.7764 104.992 84.6338C104.863 84.4912 104.763 84.3213 104.69 84.124C104.618 83.9268 104.582 83.7109 104.582 83.4766C104.582 83.2422 104.62 83.0264 104.696 82.8291C104.772 82.6318 104.877 82.4629 105.01 82.3223C105.143 82.1797 105.298 82.0684 105.476 81.9883C105.653 81.9082 105.844 81.8682 106.047 81.8682C106.238 81.8682 106.419 81.9014 106.589 81.9678C106.761 82.0342 106.911 82.1348 107.04 82.2695H107.348V82.7734H106.797ZM108.396 83.5527C108.396 83.6387 108.402 83.7178 108.414 83.79C108.428 83.8604 108.446 83.9277 108.47 83.9922C108.542 84.1875 108.657 84.335 108.815 84.4346C108.976 84.5322 109.156 84.5811 109.357 84.5811C109.516 84.5811 109.669 84.5596 109.817 84.5166C109.968 84.4717 110.125 84.4023 110.289 84.3086L110.509 84.6807C110.31 84.8174 110.109 84.9189 109.908 84.9854C109.707 85.0518 109.498 85.085 109.281 85.085C109.076 85.085 108.886 85.0508 108.71 84.9824C108.536 84.9141 108.386 84.8125 108.259 84.6777C108.134 84.543 108.035 84.375 107.963 84.1738C107.893 83.9727 107.857 83.7383 107.857 83.4707C107.857 83.2539 107.888 83.0498 107.948 82.8584C108.009 82.665 108.099 82.4971 108.218 82.3545C108.339 82.21 108.488 82.0957 108.666 82.0117C108.844 81.9277 109.051 81.8857 109.287 81.8857C109.516 81.8857 109.706 81.9209 109.858 81.9912C110.013 82.0596 110.138 82.1514 110.233 82.2666C110.331 82.3799 110.404 82.5098 110.453 82.6562C110.504 82.8027 110.539 82.9521 110.559 83.1045C110.568 83.1787 110.574 83.2539 110.576 83.3301C110.58 83.4062 110.582 83.4805 110.582 83.5527H108.396ZM109.249 82.3428C109.122 82.3428 109.011 82.3613 108.915 82.3984C108.821 82.4336 108.741 82.4854 108.675 82.5537C108.608 82.6201 108.555 82.7021 108.514 82.7998C108.475 82.8975 108.445 83.0068 108.426 83.1279H109.999C109.991 83.0146 109.973 82.9102 109.943 82.8145C109.916 82.7188 109.873 82.6357 109.814 82.5654C109.756 82.4951 109.681 82.4404 109.589 82.4014C109.497 82.3623 109.384 82.3428 109.249 82.3428ZM108.429 81.5547L109.161 80.6377H109.346L110.084 81.5547H109.647L109.258 81.1006L108.862 81.5547H108.429Z" fill="#767676"/>
<defs>
<clipPath id="clip0_4_7">
<rect width="57" height="54" fill="white" transform="translate(30)"/>
</clipPath>
</defs>
</svg>
